<svg width="56" height="56" viewBox="0 0 56 56" fill="none" xmlns="http://www.w3.org/2000/svg">
<path d="M27.0135 42.4816C26.027 42.3589 25.3179 41.9602 24.8863 41.2855C24.4547 40.6108 24.2389 39.8135 24.2389 38.8934C24.2389 37.6053 24.4855 36.1946 24.9788 34.6612C25.5337 33.0664 26.1195 31.5943 26.736 30.2449C27.4143 28.8955 27.9383 27.8835 28.3083 27.2088L29.8805 24.6326C29.079 24.9393 28.3699 25.0926 27.7534 25.0926C26.2736 25.0926 25.1946 24.3566 24.5164 22.8845C24.2697 23.1912 23.9923 23.5899 23.684 24.0806C23.3757 24.5713 23.1599 24.9393 23.0366 25.1846C22.1118 26.4727 21.0019 27.9755 19.7071 29.6929C18.4123 31.349 17.1175 32.9437 15.8227 34.4772C14.5279 35.9492 13.3565 37.1146 12.3083 37.9734H12.2158C12.1541 37.9734 12.0925 37.8813 12.0308 37.6973C11.9692 37.5133 12 37.36 12.1233 37.2373C12.9865 36.3786 13.8497 35.4585 14.7129 34.4772C15.5761 33.4344 16.3776 32.4224 17.1175 31.441C17.7958 30.5823 18.5665 29.5396 19.4297 28.3128C20.2929 27.0861 21.0944 25.8593 21.8343 24.6326C22.5742 23.3445 23.0983 22.2405 23.4066 21.3204C23.3449 20.8297 23.3757 20.063 23.499 19.0203C23.6224 17.9162 24.1464 16.4748 25.0713 14.6961C25.4412 13.8987 26.0886 13.5 27.0135 13.5C27.6301 13.5 28.2158 13.684 28.7707 14.052C29.3873 14.3587 29.7881 14.7574 29.973 15.2481C28.8632 16.1681 27.9075 17.1495 27.106 18.1923C26.7977 18.6216 26.4586 19.2043 26.0886 19.9404C25.7187 20.6151 25.5337 21.2898 25.5337 21.9645C25.5337 22.3938 25.657 22.7925 25.9037 23.1605C26.1503 23.4672 26.6435 23.6206 27.3834 23.6206C28.3699 23.6206 29.3565 23.3752 30.343 22.8845C31.3911 22.3938 32.3468 21.9951 33.21 21.6885C33.6416 21.5658 34.0424 21.4431 34.4123 21.3204C34.7823 21.1978 35.1214 21.1364 35.4297 21.1364C36.2929 21.1364 36.6936 21.5964 36.632 22.5165C35.2755 23.8659 34.0424 25.3687 32.9326 27.0247C31.8227 28.6195 30.8362 30.3063 29.973 32.085C29.7881 32.5144 29.5106 33.1891 29.1407 34.1091C28.7707 34.9679 28.4316 35.8879 28.1233 36.8693C27.8767 37.7893 27.7534 38.6174 27.7534 39.3534C27.7534 40.5188 28.1541 41.1015 28.9557 41.1015C29.264 41.1015 29.6339 41.0402 30.0655 40.9175C30.5588 40.7335 31.1137 40.4268 31.7302 39.9975C33.1484 39.0161 34.5973 37.7587 36.0771 36.2253C37.5568 34.6305 38.9133 33.0357 40.1464 31.441C41.4412 29.7849 42.4894 28.3742 43.2909 27.2088C43.4143 27.0861 43.5376 27.0247 43.6609 27.0247C43.7842 27.0247 43.8767 27.1474 43.9383 27.3928C44.0617 27.6381 44 27.9141 43.7534 28.2208C41.842 30.9196 39.9306 33.3424 38.0193 35.4892C36.1079 37.5747 34.2582 39.2614 32.4701 40.5495C31.422 41.3469 30.4046 41.8989 29.4181 42.2056C28.4933 42.4509 27.6917 42.5429 27.0135 42.4816Z" fill="white"/>
</svg>
